# File created by Blade
# Date/Time:  Tue Apr 07 20:49:23 2015
# Frame Rate: 120.000 fps
#------------------------------------------------------
:FULLY-SPECIFIED
:DEGREES
509
root 1.934760 34.089227 -6.639713 -36.586081 57.246793 -113.845370
Spine -41.899993 -12.331378 33.000635
Head -12.769904 21.096543 31.494877
LeftShoulder -21.287596 34.553865 36.067067
LeftArm 97.014387 -75.211209 -84.641749
LeftForeArm 16.288957 -0.000000 25.754842
LeftHand 7.941022 0.000000 20.717894
LeftHandThumb1 -26.253704 0.000000 33.147579
RightShoulder -23.840197 -10.075748 -24.291508
RightArm -21.164420 38.796622 28.247663
RightForeArm 63.550719 0.000000 -1.320273
RightHand 4.016080 0.000000 18.059540
RightHandThumb1 -24.326973 -0.000000 -32.862282
LeftUpLeg -69.051839 20.997002 30.446212
LeftLeg -3.361305 -0.000000 0.000000
LeftFoot 2.835509 16.270940 -4.533511
LeftToeBase -14.001461 -0.000000 0.000000
RightUpLeg 28.995462 19.020255 -21.194732
RightLeg 67.522776 -0.000000 -0.000000
RightFoot 54.568591 9.981199 -0.174863
RightToeBase 10.371465 -0.000000 -0.000000
510
root 1.925938 34.085330 -6.634713 -36.402784 57.093679 -113.930497
Spine -41.974800 -12.210753 33.205241
Head -12.881732 21.195778 31.263479
LeftShoulder -21.312050 34.516027 36.059227
LeftArm 97.167135 -75.145943 -84.795762
LeftForeArm 16.353984 -0.000000 25.724353
LeftHand 7.973676 -0.000000 20.639831
LeftHandThumb1 -26.253704 0.000000 33.147579
RightShoulder -23.793686 -10.107087 -24.351033
RightArm -21.025841 38.774626 28.216646
RightForeArm 63.562438 -0.000000 -1.266532
RightHand 3.959364 -0.000000 17.964811
RightHandThumb1 -24.326973 -0.000000 -32.862282
LeftUpLeg -69.103933 21.159227 30.553857
LeftLeg -3.683055 -0.000000 0.000000
LeftFoot 3.166458 16.546060 -3.754746
LeftToeBase -13.903898 -0.000000 0.000000
RightUpLeg 29.030468 19.173338 -21.078679
RightLeg 67.262853 -0.000000 -0.000000
RightFoot 54.509112 10.050277 -0.177890
RightToeBase 10.305705 -0.000000 -0.000000
511
root 1.915782 34.081844 -6.631095 -36.159719 56.930789 -113.981843
Spine -42.068596 -12.051892 33.391159
Head -12.964535 21.292497 31.074065
LeftShoulder -21.297185 34.487205 36.091744
LeftArm 97.251474 -75.083234 -84.926965
LeftForeArm 16.424350 -0.000000 25.684609
LeftHand 7.907927 -0.000000 20.633221
LeftHandThumb1 -26.253704 0.000000 33.147579
RightShoulder -23.743163 -10.130251 -24.393836
RightArm -20.863598 38.688076 28.169586
RightForeArm 63.548576 -0.000000 -1.293436
RightHand 3.922821 -0.000000 17.961539
RightHandThumb1 -24.326973 -0.000000 -32.862282
LeftUpLeg -69.184298 21.338470 30.686942
LeftLeg -3.953713 -0.000000 0.000000
LeftFoot 3.409155 16.816370 -3.242818
LeftToeBase -13.867758 -0.000000 0.000000
RightUpLeg 29.041746 19.343940 -20.957008
RightLeg 67.007617 -0.000000 -0.000000
RightFoot 54.534045 10.067053 -0.185490
RightToeBase 9.957282 -0.000000 -0.000000
512
root 1.905749 34.078663 -6.626414 -35.959068 56.766521 -114.080308
Spine -42.163680 -11.902095 33.594819
Head -13.044385 21.412885 30.904489
LeftShoulder -21.305503 34.541196 36.101907
LeftArm 97.653963 -74.994110 -85.396990
LeftForeArm 16.542501 -0.000000 25.634044
LeftHand 8.078370 -0.000000 20.323822
LeftHandThumb1 -26.253704 0.000000 33.147579
RightShoulder -23.696987 -10.094455 -24.446260
RightArm -20.665350 38.467989 28.115265
RightForeArm 63.643407 -0.000000 -1.422539
RightHand 3.939203 0.000000 17.962014
RightHandThumb1 -24.326973 -0.000000 -32.862282
LeftUpLeg -69.211400 21.463501 30.962274
LeftLeg -4.250076 -0.000000 0.000000
LeftFoot 3.698390 17.210480 -2.481127
LeftToeBase -13.658505 -0.000000 0.000000
RightUpLeg 29.059371 19.532157 -20.804056
RightLeg 66.747029 -0.000000 -0.000000
RightFoot 54.602430 10.119677 -0.103741
RightToeBase 10.016348 -0.000000 -0.000000
513
root 1.893156 34.075106 -6.623478 -35.702748 56.643149 -114.108845
Spine -42.245421 -11.755694 33.716009
Head -13.143055 21.526760 30.793248
LeftShoulder -21.327816 34.587119 36.080773
LeftArm 97.960908 -74.921469 -85.705034
LeftForeArm 16.468868 -0.000000 25.524881
LeftHand 7.981392 -0.000000 20.645887
LeftHandThumb1 -26.253704 0.000000 33.147579
RightShoulder -23.673333 -10.053983 -24.471628
RightArm -20.515619 38.311601 28.007846
RightForeArm 63.709592 0.000000 -1.526132
RightHand 3.933969 -0.000000 17.953430
RightHandThumb1 -24.326973 -0.000000 -32.862282
LeftUpLeg -69.205965 21.532426 31.303903
LeftLeg -4.511089 -0.000000 0.000000
LeftFoot 3.971091 17.701752 -1.760179
LeftToeBase -13.528864 -0.000000 0.000000
RightUpLeg 29.069133 19.679398 -20.745844
RightLeg 66.538845 -0.000000 -0.000000
RightFoot 54.634091 10.066668 -0.150203
RightToeBase 9.850980 -0.000000 -0.000000
514
root 1.878949 34.069765 -6.620258 -35.482738 56.540672 -114.157079
Spine -42.318524 -11.640120 33.824555
Head -13.276990 21.616525 30.685294
LeftShoulder -21.296485 34.594421 36.133544
LeftArm 97.818623 -74.868944 -85.607863
LeftForeArm 16.427513 0.000000 25.379589
LeftHand 7.913172 -0.000000 20.619239
LeftHandThumb1 -26.253704 0.000000 33.147579
RightShoulder -23.648676 -9.998544 -24.509355
RightArm -20.351528 38.104424 27.904385
RightForeArm 63.925821 -0.000000 -1.718853
RightHand 3.858506 0.000000 18.037143
RightHandThumb1 -24.326973 -0.000000 -32.862282
LeftUpLeg -69.153729 21.534611 31.763671
LeftLeg -4.753305 -0.000000 0.000000
LeftFoot 4.229066 18.279263 -1.095444
LeftToeBase -13.341054 -0.000000 0.000000
RightUpLeg 29.102640 19.792860 -20.715042
RightLeg 66.371235 -0.000000 -0.000000
RightFoot 54.615688 9.919323 -0.228807
RightToeBase 9.678390 -0.000000 -0.000000
515
root 1.864698 34.063735 -6.616221 -35.254773 56.454526 -114.177739
Spine -42.383676 -11.544780 33.900998
Head -13.386216 21.718552 30.635075
LeftShoulder -21.310695 34.657405 36.117705
LeftArm 97.931627 -74.815198 -85.714724
LeftForeArm 16.467808 -0.000000 25.193178
LeftHand 8.159281 -0.000000 20.478044
LeftHandThumb1 -26.253704 0.000000 33.147579
RightShoulder -23.595863 -9.883138 -24.579890
RightArm -20.336163 37.975554 27.703618
RightForeArm 63.931424 -0.000000 -1.875013
RightHand 3.872266 -0.000000 18.296545
RightHandThumb1 -24.326973 -0.000000 -32.862282
LeftUpLeg -69.099594 21.536341 32.195167
LeftLeg -4.980190 -0.000000 0.000000
LeftFoot 4.432483 18.845657 -0.707029
LeftToeBase -13.455076 -0.000000 0.000000
RightUpLeg 29.153675 19.924472 -20.673601
RightLeg 66.220493 -0.000000 -0.000000
RightFoot 54.600316 9.767237 -0.299013
RightToeBase 10.046127 -0.000000 -0.000000
